<mxfile host="app.diagrams.net" modified="2024-04-04T11:44:08.394Z" agent="Mozilla/5.0 (Windows NT 10.0; Win64; x64) AppleWebKit/537.36 (KHTML, like Gecko) Chrome/123.0.0.0 Safari/537.36" etag="Nt6vx6fW-7VzBhKK2XLb" version="24.2.2" type="device">
  <diagram name="페이지-1" id="fLK22L0cyS2KONPvhXHz">
    <mxGraphModel dx="3217" dy="118" grid="1" gridSize="10" guides="1" tooltips="1" connect="1" arrows="1" fold="1" page="1" pageScale="1" pageWidth="827" pageHeight="1169" math="0" shadow="0">
      <root>
        <mxCell id="0" />
        <mxCell id="1" parent="0" />
        <mxCell id="fRdi2J-xlvi1yjMBcKha-276" value="" style="group;fillColor=#f5f5f5;fontColor=#333333;strokeColor=#666666;" vertex="1" connectable="0" parent="1">
          <mxGeometry x="-800" y="1830" width="1650" height="1760" as="geometry" />
        </mxCell>
        <mxCell id="fRdi2J-xlvi1yjMBcKha-273" value="" style="group" vertex="1" connectable="0" parent="fRdi2J-xlvi1yjMBcKha-276">
          <mxGeometry y="20" width="1630" height="1740" as="geometry" />
        </mxCell>
        <mxCell id="fRdi2J-xlvi1yjMBcKha-88" value="게시글 등록" style="whiteSpace=wrap;html=1;rounded=1;shadow=1;strokeWidth=1;fontSize=16;align=center;fillColor=#f5f5f5;strokeColor=#666666;" vertex="1" parent="fRdi2J-xlvi1yjMBcKha-273">
          <mxGeometry x="398" y="370.5" width="125" height="45" as="geometry" />
        </mxCell>
        <mxCell id="fRdi2J-xlvi1yjMBcKha-90" value="댓글 작성" style="whiteSpace=wrap;html=1;rounded=1;shadow=1;strokeWidth=1;fontSize=16;align=center;fillColor=#f5f5f5;strokeColor=#666666;" vertex="1" parent="fRdi2J-xlvi1yjMBcKha-273">
          <mxGeometry x="398" y="610" width="125" height="45" as="geometry" />
        </mxCell>
        <mxCell id="fRdi2J-xlvi1yjMBcKha-91" value="게시글 수정" style="whiteSpace=wrap;html=1;rounded=1;shadow=1;strokeWidth=1;fontSize=16;align=center;fillColor=#f5f5f5;strokeColor=#666666;" vertex="1" parent="fRdi2J-xlvi1yjMBcKha-273">
          <mxGeometry x="400" y="450.5" width="125" height="45" as="geometry" />
        </mxCell>
        <mxCell id="fRdi2J-xlvi1yjMBcKha-92" value="게시글 삭제" style="whiteSpace=wrap;html=1;rounded=1;shadow=1;strokeWidth=1;fontSize=16;align=center;fillColor=#f5f5f5;strokeColor=#666666;" vertex="1" parent="fRdi2J-xlvi1yjMBcKha-273">
          <mxGeometry x="400" y="528" width="125" height="45" as="geometry" />
        </mxCell>
        <mxCell id="fRdi2J-xlvi1yjMBcKha-93" value="댓글 수정" style="whiteSpace=wrap;html=1;rounded=1;shadow=1;strokeWidth=1;fontSize=16;align=center;fillColor=#f5f5f5;strokeColor=#666666;" vertex="1" parent="fRdi2J-xlvi1yjMBcKha-273">
          <mxGeometry x="400" y="700" width="125" height="45" as="geometry" />
        </mxCell>
        <mxCell id="fRdi2J-xlvi1yjMBcKha-94" value="댓글 삭제" style="whiteSpace=wrap;html=1;rounded=1;shadow=1;strokeWidth=1;fontSize=16;align=center;fillColor=#f5f5f5;strokeColor=#666666;" vertex="1" parent="fRdi2J-xlvi1yjMBcKha-273">
          <mxGeometry x="400" y="780" width="125" height="45" as="geometry" />
        </mxCell>
        <mxCell id="fRdi2J-xlvi1yjMBcKha-95" value="통합 관리자" style="whiteSpace=wrap;html=1;rounded=1;shadow=1;strokeWidth=1;fontSize=16;align=center;fillColor=#f5f5f5;strokeColor=#666666;" vertex="1" parent="fRdi2J-xlvi1yjMBcKha-273">
          <mxGeometry x="92.5" y="123" width="210" height="40" as="geometry" />
        </mxCell>
        <mxCell id="fRdi2J-xlvi1yjMBcKha-96" value="일반 사용자" style="whiteSpace=wrap;html=1;rounded=1;shadow=1;strokeWidth=1;fontSize=16;align=center;fillColor=#f5f5f5;strokeColor=#666666;" vertex="1" parent="fRdi2J-xlvi1yjMBcKha-273">
          <mxGeometry x="380" y="123" width="330" height="40" as="geometry" />
        </mxCell>
        <mxCell id="fRdi2J-xlvi1yjMBcKha-257" style="edgeStyle=orthogonalEdgeStyle;rounded=0;orthogonalLoop=1;jettySize=auto;html=1;exitX=0.5;exitY=1;exitDx=0;exitDy=0;entryX=0.5;entryY=0;entryDx=0;entryDy=0;" edge="1" parent="fRdi2J-xlvi1yjMBcKha-273" source="fRdi2J-xlvi1yjMBcKha-98" target="fRdi2J-xlvi1yjMBcKha-176">
          <mxGeometry relative="1" as="geometry" />
        </mxCell>
        <mxCell id="fRdi2J-xlvi1yjMBcKha-258" style="edgeStyle=orthogonalEdgeStyle;rounded=0;orthogonalLoop=1;jettySize=auto;html=1;exitX=0.5;exitY=1;exitDx=0;exitDy=0;entryX=0.5;entryY=0;entryDx=0;entryDy=0;" edge="1" parent="fRdi2J-xlvi1yjMBcKha-273" source="fRdi2J-xlvi1yjMBcKha-98" target="fRdi2J-xlvi1yjMBcKha-179">
          <mxGeometry relative="1" as="geometry" />
        </mxCell>
        <mxCell id="fRdi2J-xlvi1yjMBcKha-259" style="edgeStyle=orthogonalEdgeStyle;rounded=0;orthogonalLoop=1;jettySize=auto;html=1;exitX=0.5;exitY=1;exitDx=0;exitDy=0;entryX=0.5;entryY=0;entryDx=0;entryDy=0;" edge="1" parent="fRdi2J-xlvi1yjMBcKha-273" source="fRdi2J-xlvi1yjMBcKha-98" target="fRdi2J-xlvi1yjMBcKha-178">
          <mxGeometry relative="1" as="geometry" />
        </mxCell>
        <mxCell id="fRdi2J-xlvi1yjMBcKha-260" style="edgeStyle=orthogonalEdgeStyle;rounded=0;orthogonalLoop=1;jettySize=auto;html=1;exitX=0.5;exitY=1;exitDx=0;exitDy=0;entryX=0.5;entryY=0;entryDx=0;entryDy=0;" edge="1" parent="fRdi2J-xlvi1yjMBcKha-273" source="fRdi2J-xlvi1yjMBcKha-98" target="fRdi2J-xlvi1yjMBcKha-180">
          <mxGeometry relative="1" as="geometry">
            <Array as="points">
              <mxPoint x="825" y="908" />
              <mxPoint x="1464" y="908" />
            </Array>
          </mxGeometry>
        </mxCell>
        <mxCell id="fRdi2J-xlvi1yjMBcKha-98" value="음성 제어" style="whiteSpace=wrap;html=1;rounded=1;shadow=1;strokeWidth=1;fontSize=16;align=center;fillColor=#f5f5f5;strokeColor=#666666;" vertex="1" parent="fRdi2J-xlvi1yjMBcKha-273">
          <mxGeometry x="763" y="675.3699999999999" width="125" height="50" as="geometry" />
        </mxCell>
        <mxCell id="fRdi2J-xlvi1yjMBcKha-99" value="&lt;font style=&quot;font-size: 25px;&quot;&gt;Application&lt;/font&gt;" style="whiteSpace=wrap;html=1;rounded=1;shadow=1;strokeWidth=1;fontSize=16;align=center;fillColor=#dae8fc;strokeColor=#6c8ebf;" vertex="1" parent="fRdi2J-xlvi1yjMBcKha-273">
          <mxGeometry x="65.25" y="30" width="674.75" height="40" as="geometry" />
        </mxCell>
        <mxCell id="fRdi2J-xlvi1yjMBcKha-100" value="보유기기 삭제" style="whiteSpace=wrap;html=1;rounded=1;shadow=1;strokeWidth=1;fontSize=16;align=center;fillColor=#f5f5f5;strokeColor=#666666;" vertex="1" parent="fRdi2J-xlvi1yjMBcKha-273">
          <mxGeometry x="738.5" y="450.5" width="125" height="50" as="geometry" />
        </mxCell>
        <mxCell id="fRdi2J-xlvi1yjMBcKha-255" style="edgeStyle=orthogonalEdgeStyle;rounded=0;orthogonalLoop=1;jettySize=auto;html=1;exitX=0.5;exitY=1;exitDx=0;exitDy=0;entryX=0.5;entryY=0;entryDx=0;entryDy=0;" edge="1" parent="fRdi2J-xlvi1yjMBcKha-273" source="fRdi2J-xlvi1yjMBcKha-102" target="fRdi2J-xlvi1yjMBcKha-177">
          <mxGeometry relative="1" as="geometry">
            <mxPoint x="860" y="1070" as="targetPoint" />
            <Array as="points">
              <mxPoint x="630" y="820" />
              <mxPoint x="824" y="820" />
              <mxPoint x="824" y="1090" />
            </Array>
          </mxGeometry>
        </mxCell>
        <mxCell id="fRdi2J-xlvi1yjMBcKha-102" value="버튼 제어" style="whiteSpace=wrap;html=1;rounded=1;shadow=1;strokeWidth=1;fontSize=16;align=center;fillColor=#f5f5f5;strokeColor=#666666;" vertex="1" parent="fRdi2J-xlvi1yjMBcKha-273">
          <mxGeometry x="567.25" y="675.3699999999999" width="125" height="50" as="geometry" />
        </mxCell>
        <mxCell id="fRdi2J-xlvi1yjMBcKha-128" value="" style="endArrow=none;dashed=1;html=1;dashPattern=1 3;strokeWidth=3;rounded=0;" edge="1" parent="fRdi2J-xlvi1yjMBcKha-273">
          <mxGeometry width="50" height="50" relative="1" as="geometry">
            <mxPoint x="360" y="830" as="sourcePoint" />
            <mxPoint x="360" y="128" as="targetPoint" />
          </mxGeometry>
        </mxCell>
        <mxCell id="fRdi2J-xlvi1yjMBcKha-131" value="주변 스마트 홈 기기&amp;nbsp;목록 확인" style="whiteSpace=wrap;html=1;rounded=1;shadow=1;strokeWidth=1;fontSize=16;align=center;fillColor=#f5f5f5;strokeColor=#666666;" vertex="1" parent="fRdi2J-xlvi1yjMBcKha-273">
          <mxGeometry x="926.63" y="292.25" width="183.5" height="45" as="geometry" />
        </mxCell>
        <mxCell id="fRdi2J-xlvi1yjMBcKha-132" value="주변 스마트 홈 기기 탐색" style="whiteSpace=wrap;html=1;rounded=1;shadow=1;strokeWidth=1;fontSize=16;align=center;fillColor=#f5f5f5;strokeColor=#666666;" vertex="1" parent="fRdi2J-xlvi1yjMBcKha-273">
          <mxGeometry x="955.87" y="212.5" width="125" height="45" as="geometry" />
        </mxCell>
        <mxCell id="fRdi2J-xlvi1yjMBcKha-134" value="" style="endArrow=classic;html=1;rounded=0;exitX=0.5;exitY=1;exitDx=0;exitDy=0;entryX=0.5;entryY=0;entryDx=0;entryDy=0;" edge="1" parent="fRdi2J-xlvi1yjMBcKha-273" source="fRdi2J-xlvi1yjMBcKha-132" target="fRdi2J-xlvi1yjMBcKha-131">
          <mxGeometry width="50" height="50" relative="1" as="geometry">
            <mxPoint x="888.87" y="458.25" as="sourcePoint" />
            <mxPoint x="938.87" y="408.25" as="targetPoint" />
          </mxGeometry>
        </mxCell>
        <mxCell id="fRdi2J-xlvi1yjMBcKha-135" value="" style="endArrow=classic;html=1;rounded=0;exitX=0.5;exitY=1;exitDx=0;exitDy=0;entryX=0.5;entryY=0;entryDx=0;entryDy=0;" edge="1" parent="fRdi2J-xlvi1yjMBcKha-273" source="fRdi2J-xlvi1yjMBcKha-131" target="fRdi2J-xlvi1yjMBcKha-136">
          <mxGeometry width="50" height="50" relative="1" as="geometry">
            <mxPoint x="1019.87" y="268.25" as="sourcePoint" />
            <mxPoint x="1010.37" y="370.5" as="targetPoint" />
          </mxGeometry>
        </mxCell>
        <mxCell id="fRdi2J-xlvi1yjMBcKha-232" style="edgeStyle=orthogonalEdgeStyle;rounded=0;orthogonalLoop=1;jettySize=auto;html=1;exitX=0;exitY=0.5;exitDx=0;exitDy=0;entryX=1;entryY=0.5;entryDx=0;entryDy=0;" edge="1" parent="fRdi2J-xlvi1yjMBcKha-273" source="fRdi2J-xlvi1yjMBcKha-136" target="fRdi2J-xlvi1yjMBcKha-142">
          <mxGeometry relative="1" as="geometry" />
        </mxCell>
        <mxCell id="fRdi2J-xlvi1yjMBcKha-136" value="주변 스마트 홈 기기&amp;nbsp;등록" style="whiteSpace=wrap;html=1;rounded=1;shadow=1;strokeWidth=1;fontSize=16;align=center;fillColor=#f5f5f5;strokeColor=#666666;" vertex="1" parent="fRdi2J-xlvi1yjMBcKha-273">
          <mxGeometry x="955.88" y="370.5" width="125" height="50" as="geometry" />
        </mxCell>
        <mxCell id="fRdi2J-xlvi1yjMBcKha-256" style="edgeStyle=orthogonalEdgeStyle;rounded=0;orthogonalLoop=1;jettySize=auto;html=1;exitX=0.5;exitY=1;exitDx=0;exitDy=0;entryX=0.5;entryY=0;entryDx=0;entryDy=0;" edge="1" parent="fRdi2J-xlvi1yjMBcKha-273" source="fRdi2J-xlvi1yjMBcKha-138" target="fRdi2J-xlvi1yjMBcKha-177">
          <mxGeometry relative="1" as="geometry">
            <Array as="points">
              <mxPoint x="977" y="820" />
              <mxPoint x="803" y="820" />
            </Array>
          </mxGeometry>
        </mxCell>
        <mxCell id="fRdi2J-xlvi1yjMBcKha-138" value="버튼 제어" style="whiteSpace=wrap;html=1;rounded=1;shadow=1;strokeWidth=1;fontSize=16;align=center;fillColor=#f5f5f5;strokeColor=#666666;" vertex="1" parent="fRdi2J-xlvi1yjMBcKha-273">
          <mxGeometry x="955.88" y="675.3699999999999" width="125" height="50" as="geometry" />
        </mxCell>
        <mxCell id="fRdi2J-xlvi1yjMBcKha-142" value="등록된 스마트 홈&lt;div&gt;&amp;nbsp;기기&amp;nbsp;목록&amp;nbsp; 확인&lt;/div&gt;" style="whiteSpace=wrap;html=1;rounded=1;shadow=1;strokeWidth=1;fontSize=16;align=center;fillColor=#f5f5f5;strokeColor=#666666;" vertex="1" parent="fRdi2J-xlvi1yjMBcKha-273">
          <mxGeometry x="559.44" y="292.25" width="140.62" height="45" as="geometry" />
        </mxCell>
        <mxCell id="fRdi2J-xlvi1yjMBcKha-143" value="주변 스마트 홈 기기 탐색 요청" style="whiteSpace=wrap;html=1;rounded=1;shadow=1;strokeWidth=1;fontSize=16;align=center;fillColor=#f5f5f5;strokeColor=#666666;" vertex="1" parent="fRdi2J-xlvi1yjMBcKha-273">
          <mxGeometry x="567.25" y="212.5" width="125" height="45" as="geometry" />
        </mxCell>
        <mxCell id="fRdi2J-xlvi1yjMBcKha-146" value="" style="endArrow=classic;html=1;rounded=0;exitX=0.5;exitY=1;exitDx=0;exitDy=0;entryX=0.5;entryY=0;entryDx=0;entryDy=0;" edge="1" parent="fRdi2J-xlvi1yjMBcKha-273" source="fRdi2J-xlvi1yjMBcKha-142" target="fRdi2J-xlvi1yjMBcKha-149">
          <mxGeometry width="50" height="50" relative="1" as="geometry">
            <mxPoint x="639.25" y="268" as="sourcePoint" />
            <mxPoint x="629.75" y="370.5" as="targetPoint" />
          </mxGeometry>
        </mxCell>
        <mxCell id="fRdi2J-xlvi1yjMBcKha-147" style="edgeStyle=orthogonalEdgeStyle;rounded=0;orthogonalLoop=1;jettySize=auto;html=1;exitX=0.5;exitY=1;exitDx=0;exitDy=0;" edge="1" parent="fRdi2J-xlvi1yjMBcKha-273" source="fRdi2J-xlvi1yjMBcKha-149" target="fRdi2J-xlvi1yjMBcKha-102">
          <mxGeometry relative="1" as="geometry" />
        </mxCell>
        <mxCell id="fRdi2J-xlvi1yjMBcKha-148" style="edgeStyle=orthogonalEdgeStyle;rounded=0;orthogonalLoop=1;jettySize=auto;html=1;exitX=0.5;exitY=1;exitDx=0;exitDy=0;entryX=0.5;entryY=0;entryDx=0;entryDy=0;" edge="1" parent="fRdi2J-xlvi1yjMBcKha-273" source="fRdi2J-xlvi1yjMBcKha-149" target="fRdi2J-xlvi1yjMBcKha-98">
          <mxGeometry relative="1" as="geometry" />
        </mxCell>
        <mxCell id="fRdi2J-xlvi1yjMBcKha-149" value="등록된 스마트 홈 기기 선택" style="whiteSpace=wrap;html=1;rounded=1;shadow=1;strokeWidth=1;fontSize=16;align=center;fillColor=#f5f5f5;strokeColor=#666666;" vertex="1" parent="fRdi2J-xlvi1yjMBcKha-273">
          <mxGeometry x="567.25" y="450.5" width="125" height="50" as="geometry" />
        </mxCell>
        <mxCell id="fRdi2J-xlvi1yjMBcKha-151" value="게시물 관리" style="whiteSpace=wrap;html=1;rounded=1;shadow=1;strokeWidth=1;fontSize=16;align=center;fillColor=#f5f5f5;strokeColor=#666666;" vertex="1" parent="fRdi2J-xlvi1yjMBcKha-273">
          <mxGeometry x="135" y="370.5" width="125" height="45" as="geometry" />
        </mxCell>
        <mxCell id="fRdi2J-xlvi1yjMBcKha-152" value="회원 관리" style="whiteSpace=wrap;html=1;rounded=1;shadow=1;strokeWidth=1;fontSize=16;align=center;fillColor=#f5f5f5;strokeColor=#666666;" vertex="1" parent="fRdi2J-xlvi1yjMBcKha-273">
          <mxGeometry x="135" y="212.5" width="125" height="45" as="geometry" />
        </mxCell>
        <mxCell id="fRdi2J-xlvi1yjMBcKha-153" value="게시판 관리" style="whiteSpace=wrap;html=1;rounded=1;shadow=1;strokeWidth=1;fontSize=16;align=center;fillColor=#f5f5f5;strokeColor=#666666;" vertex="1" parent="fRdi2J-xlvi1yjMBcKha-273">
          <mxGeometry x="135" y="290.5" width="125" height="45" as="geometry" />
        </mxCell>
        <mxCell id="fRdi2J-xlvi1yjMBcKha-154" value="기기 등록" style="whiteSpace=wrap;html=1;rounded=1;shadow=1;strokeWidth=1;fontSize=16;align=center;fillColor=#f5f5f5;strokeColor=#666666;" vertex="1" parent="fRdi2J-xlvi1yjMBcKha-273">
          <mxGeometry x="135" y="450.5" width="125" height="45" as="geometry" />
        </mxCell>
        <mxCell id="fRdi2J-xlvi1yjMBcKha-155" style="edgeStyle=orthogonalEdgeStyle;rounded=0;orthogonalLoop=1;jettySize=auto;html=1;exitX=0.5;exitY=1;exitDx=0;exitDy=0;" edge="1" parent="fRdi2J-xlvi1yjMBcKha-273" source="fRdi2J-xlvi1yjMBcKha-156" target="fRdi2J-xlvi1yjMBcKha-157">
          <mxGeometry relative="1" as="geometry" />
        </mxCell>
        <mxCell id="fRdi2J-xlvi1yjMBcKha-156" value="게시판 선택" style="whiteSpace=wrap;html=1;rounded=1;shadow=1;strokeWidth=1;fontSize=16;align=center;fillColor=#f5f5f5;strokeColor=#666666;" vertex="1" parent="fRdi2J-xlvi1yjMBcKha-273">
          <mxGeometry x="400" y="212.5" width="125" height="45" as="geometry" />
        </mxCell>
        <mxCell id="fRdi2J-xlvi1yjMBcKha-157" value="게시글 이용" style="whiteSpace=wrap;html=1;rounded=1;shadow=1;strokeWidth=1;fontSize=16;align=center;fillColor=#f5f5f5;strokeColor=#666666;" vertex="1" parent="fRdi2J-xlvi1yjMBcKha-273">
          <mxGeometry x="399" y="292.25" width="125" height="45" as="geometry" />
        </mxCell>
        <mxCell id="fRdi2J-xlvi1yjMBcKha-158" value="Zigbee Hub 사용자" style="whiteSpace=wrap;html=1;rounded=1;shadow=1;strokeWidth=1;fontSize=16;align=center;fillColor=#f5f5f5;strokeColor=#666666;" vertex="1" parent="fRdi2J-xlvi1yjMBcKha-273">
          <mxGeometry x="913.37" y="123" width="210" height="40" as="geometry" />
        </mxCell>
        <mxCell id="fRdi2J-xlvi1yjMBcKha-175" value="&lt;font style=&quot;font-size: 25px;&quot;&gt;Zigbee Hub&lt;/font&gt;" style="whiteSpace=wrap;html=1;rounded=1;shadow=1;strokeWidth=1;fontSize=16;align=center;fillColor=#dae8fc;strokeColor=#6c8ebf;" vertex="1" parent="fRdi2J-xlvi1yjMBcKha-273">
          <mxGeometry x="880" y="30" width="276.75" height="40" as="geometry" />
        </mxCell>
        <mxCell id="fRdi2J-xlvi1yjMBcKha-176" value="세탁기" style="whiteSpace=wrap;html=1;rounded=1;shadow=1;strokeWidth=1;fontSize=16;align=center;fillColor=#dae8fc;strokeColor=#6c8ebf;" vertex="1" parent="fRdi2J-xlvi1yjMBcKha-273">
          <mxGeometry x="372.5" y="1090" width="275" height="40" as="geometry" />
        </mxCell>
        <mxCell id="fRdi2J-xlvi1yjMBcKha-177" value="에어컨" style="whiteSpace=wrap;html=1;rounded=1;shadow=1;strokeWidth=1;fontSize=16;align=center;fillColor=#dae8fc;strokeColor=#6c8ebf;" vertex="1" parent="fRdi2J-xlvi1yjMBcKha-273">
          <mxGeometry x="687.5" y="1090" width="275" height="40" as="geometry" />
        </mxCell>
        <mxCell id="fRdi2J-xlvi1yjMBcKha-178" value="TV" style="whiteSpace=wrap;html=1;rounded=1;shadow=1;strokeWidth=1;fontSize=16;align=center;fillColor=#dae8fc;strokeColor=#6c8ebf;" vertex="1" parent="fRdi2J-xlvi1yjMBcKha-273">
          <mxGeometry x="50.5" y="1090" width="275" height="40" as="geometry" />
        </mxCell>
        <mxCell id="fRdi2J-xlvi1yjMBcKha-179" value="건조기" style="whiteSpace=wrap;html=1;rounded=1;shadow=1;strokeWidth=1;fontSize=16;align=center;fillColor=#dae8fc;strokeColor=#6c8ebf;" vertex="1" parent="fRdi2J-xlvi1yjMBcKha-273">
          <mxGeometry x="1007.5" y="1090" width="275" height="40" as="geometry" />
        </mxCell>
        <mxCell id="fRdi2J-xlvi1yjMBcKha-180" value="조명" style="whiteSpace=wrap;html=1;rounded=1;shadow=1;strokeWidth=1;fontSize=16;align=center;fillColor=#dae8fc;strokeColor=#6c8ebf;" vertex="1" parent="fRdi2J-xlvi1yjMBcKha-273">
          <mxGeometry x="1327.5" y="1090" width="275" height="40" as="geometry" />
        </mxCell>
        <mxCell id="fRdi2J-xlvi1yjMBcKha-181" value="시간 설정 관리" style="whiteSpace=wrap;html=1;rounded=1;shadow=1;strokeWidth=1;fontSize=16;align=center;fillColor=#f5f5f5;strokeColor=#666666;" vertex="1" parent="fRdi2J-xlvi1yjMBcKha-273">
          <mxGeometry x="446" y="1285" width="125" height="45" as="geometry" />
        </mxCell>
        <mxCell id="fRdi2J-xlvi1yjMBcKha-182" value="모드 변경 관리" style="whiteSpace=wrap;html=1;rounded=1;shadow=1;strokeWidth=1;fontSize=16;align=center;fillColor=#f5f5f5;strokeColor=#666666;" vertex="1" parent="fRdi2J-xlvi1yjMBcKha-273">
          <mxGeometry x="446" y="1375" width="125" height="50" as="geometry" />
        </mxCell>
        <mxCell id="fRdi2J-xlvi1yjMBcKha-183" value="On/Off 관리" style="whiteSpace=wrap;html=1;rounded=1;shadow=1;strokeWidth=1;fontSize=16;align=center;fillColor=#f5f5f5;strokeColor=#666666;" vertex="1" parent="fRdi2J-xlvi1yjMBcKha-273">
          <mxGeometry x="761" y="1285" width="125" height="45" as="geometry" />
        </mxCell>
        <mxCell id="fRdi2J-xlvi1yjMBcKha-184" value="온도 조절 관리" style="whiteSpace=wrap;html=1;rounded=1;shadow=1;strokeWidth=1;fontSize=16;align=center;fillColor=#f5f5f5;strokeColor=#666666;" vertex="1" parent="fRdi2J-xlvi1yjMBcKha-273">
          <mxGeometry x="761" y="1375" width="125" height="50" as="geometry" />
        </mxCell>
        <mxCell id="fRdi2J-xlvi1yjMBcKha-185" value="메뉴 관리" style="whiteSpace=wrap;html=1;rounded=1;shadow=1;strokeWidth=1;fontSize=16;align=center;fillColor=#f5f5f5;strokeColor=#666666;" vertex="1" parent="fRdi2J-xlvi1yjMBcKha-273">
          <mxGeometry x="124" y="1375" width="125" height="50" as="geometry" />
        </mxCell>
        <mxCell id="fRdi2J-xlvi1yjMBcKha-186" value="On/Off 관리" style="whiteSpace=wrap;html=1;rounded=1;shadow=1;strokeWidth=1;fontSize=16;align=center;fillColor=#f5f5f5;strokeColor=#666666;" vertex="1" parent="fRdi2J-xlvi1yjMBcKha-273">
          <mxGeometry x="124" y="1285" width="125" height="45" as="geometry" />
        </mxCell>
        <mxCell id="fRdi2J-xlvi1yjMBcKha-187" value="모드 변경" style="whiteSpace=wrap;html=1;rounded=1;shadow=1;strokeWidth=1;fontSize=16;align=center;fillColor=#f5f5f5;strokeColor=#666666;" vertex="1" parent="fRdi2J-xlvi1yjMBcKha-273">
          <mxGeometry x="1081" y="1285" width="125" height="45" as="geometry" />
        </mxCell>
        <mxCell id="fRdi2J-xlvi1yjMBcKha-188" value="시간 설정 관리" style="whiteSpace=wrap;html=1;rounded=1;shadow=1;strokeWidth=1;fontSize=16;align=center;fillColor=#f5f5f5;strokeColor=#666666;" vertex="1" parent="fRdi2J-xlvi1yjMBcKha-273">
          <mxGeometry x="1081" y="1375" width="125" height="50" as="geometry" />
        </mxCell>
        <mxCell id="fRdi2J-xlvi1yjMBcKha-189" value="On/Off 관리" style="whiteSpace=wrap;html=1;rounded=1;shadow=1;strokeWidth=1;fontSize=16;align=center;fillColor=#f5f5f5;strokeColor=#666666;" vertex="1" parent="fRdi2J-xlvi1yjMBcKha-273">
          <mxGeometry x="1401" y="1285" width="125" height="45" as="geometry" />
        </mxCell>
        <mxCell id="fRdi2J-xlvi1yjMBcKha-190" value="조명 밝기 관리" style="whiteSpace=wrap;html=1;rounded=1;shadow=1;strokeWidth=1;fontSize=16;align=center;fillColor=#f5f5f5;strokeColor=#666666;" vertex="1" parent="fRdi2J-xlvi1yjMBcKha-273">
          <mxGeometry x="1401" y="1375" width="125" height="50" as="geometry" />
        </mxCell>
        <mxCell id="fRdi2J-xlvi1yjMBcKha-191" value="모드 변경" style="whiteSpace=wrap;html=1;rounded=1;shadow=1;strokeWidth=1;fontSize=16;align=center;fillColor=#f5f5f5;strokeColor=#666666;" vertex="1" parent="fRdi2J-xlvi1yjMBcKha-273">
          <mxGeometry x="761" y="1475" width="125" height="50" as="geometry" />
        </mxCell>
        <mxCell id="fRdi2J-xlvi1yjMBcKha-192" value="&lt;span&gt;바람 세기 관리&lt;/span&gt;" style="whiteSpace=wrap;html=1;rounded=1;shadow=1;strokeWidth=1;fontSize=16;align=center;fillColor=#f5f5f5;strokeColor=#666666;" vertex="1" parent="fRdi2J-xlvi1yjMBcKha-273">
          <mxGeometry x="761" y="1575" width="125" height="50" as="geometry" />
        </mxCell>
        <mxCell id="fRdi2J-xlvi1yjMBcKha-193" value="조이스틱 기능" style="whiteSpace=wrap;html=1;rounded=1;shadow=1;strokeWidth=1;fontSize=16;align=center;fillColor=#f5f5f5;strokeColor=#666666;" vertex="1" parent="fRdi2J-xlvi1yjMBcKha-273">
          <mxGeometry x="124" y="1575" width="125" height="50" as="geometry" />
        </mxCell>
        <mxCell id="fRdi2J-xlvi1yjMBcKha-194" value="채널 변경 관리" style="whiteSpace=wrap;html=1;rounded=1;shadow=1;strokeWidth=1;fontSize=16;align=center;fillColor=#f5f5f5;strokeColor=#666666;" vertex="1" parent="fRdi2J-xlvi1yjMBcKha-273">
          <mxGeometry x="124" y="1475" width="125" height="50" as="geometry" />
        </mxCell>
        <mxCell id="fRdi2J-xlvi1yjMBcKha-195" value="메뉴 검색" style="whiteSpace=wrap;html=1;rounded=1;shadow=1;strokeWidth=1;fontSize=16;align=center;fillColor=#f5f5f5;strokeColor=#666666;" vertex="1" parent="fRdi2J-xlvi1yjMBcKha-273">
          <mxGeometry x="124" y="1670" width="125" height="50" as="geometry" />
        </mxCell>
        <mxCell id="fRdi2J-xlvi1yjMBcKha-197" value="" style="endArrow=none;html=1;rounded=0;entryX=0.5;entryY=1;entryDx=0;entryDy=0;exitX=0.5;exitY=0;exitDx=0;exitDy=0;" edge="1" parent="fRdi2J-xlvi1yjMBcKha-273" source="fRdi2J-xlvi1yjMBcKha-185" target="fRdi2J-xlvi1yjMBcKha-186">
          <mxGeometry width="50" height="50" relative="1" as="geometry">
            <mxPoint x="197" y="1280" as="sourcePoint" />
            <mxPoint x="197" y="1250" as="targetPoint" />
          </mxGeometry>
        </mxCell>
        <mxCell id="fRdi2J-xlvi1yjMBcKha-198" value="" style="endArrow=none;html=1;rounded=0;entryX=0.5;entryY=1;entryDx=0;entryDy=0;exitX=0.5;exitY=0;exitDx=0;exitDy=0;" edge="1" parent="fRdi2J-xlvi1yjMBcKha-273" source="fRdi2J-xlvi1yjMBcKha-194" target="fRdi2J-xlvi1yjMBcKha-185">
          <mxGeometry width="50" height="50" relative="1" as="geometry">
            <mxPoint x="207" y="1290" as="sourcePoint" />
            <mxPoint x="207" y="1260" as="targetPoint" />
          </mxGeometry>
        </mxCell>
        <mxCell id="fRdi2J-xlvi1yjMBcKha-199" value="" style="endArrow=none;html=1;rounded=0;entryX=0.5;entryY=1;entryDx=0;entryDy=0;exitX=0.5;exitY=0;exitDx=0;exitDy=0;" edge="1" parent="fRdi2J-xlvi1yjMBcKha-273" source="fRdi2J-xlvi1yjMBcKha-193" target="fRdi2J-xlvi1yjMBcKha-194">
          <mxGeometry width="50" height="50" relative="1" as="geometry">
            <mxPoint x="217" y="1300" as="sourcePoint" />
            <mxPoint x="217" y="1270" as="targetPoint" />
          </mxGeometry>
        </mxCell>
        <mxCell id="fRdi2J-xlvi1yjMBcKha-200" value="" style="endArrow=none;html=1;rounded=0;entryX=0.5;entryY=1;entryDx=0;entryDy=0;exitX=0.5;exitY=0;exitDx=0;exitDy=0;" edge="1" parent="fRdi2J-xlvi1yjMBcKha-273" source="fRdi2J-xlvi1yjMBcKha-195" target="fRdi2J-xlvi1yjMBcKha-193">
          <mxGeometry width="50" height="50" relative="1" as="geometry">
            <mxPoint x="227" y="1310" as="sourcePoint" />
            <mxPoint x="227" y="1280" as="targetPoint" />
          </mxGeometry>
        </mxCell>
        <mxCell id="fRdi2J-xlvi1yjMBcKha-202" value="" style="endArrow=none;html=1;rounded=0;entryX=0.5;entryY=1;entryDx=0;entryDy=0;exitX=0.5;exitY=0;exitDx=0;exitDy=0;" edge="1" parent="fRdi2J-xlvi1yjMBcKha-273" source="fRdi2J-xlvi1yjMBcKha-182" target="fRdi2J-xlvi1yjMBcKha-181">
          <mxGeometry width="50" height="50" relative="1" as="geometry">
            <mxPoint x="247" y="1330" as="sourcePoint" />
            <mxPoint x="247" y="1300" as="targetPoint" />
          </mxGeometry>
        </mxCell>
        <mxCell id="fRdi2J-xlvi1yjMBcKha-204" value="" style="endArrow=none;html=1;rounded=0;entryX=0.5;entryY=1;entryDx=0;entryDy=0;exitX=0.5;exitY=0;exitDx=0;exitDy=0;" edge="1" parent="fRdi2J-xlvi1yjMBcKha-273" source="fRdi2J-xlvi1yjMBcKha-184" target="fRdi2J-xlvi1yjMBcKha-183">
          <mxGeometry width="50" height="50" relative="1" as="geometry">
            <mxPoint x="834" y="1270" as="sourcePoint" />
            <mxPoint x="834" y="1240" as="targetPoint" />
          </mxGeometry>
        </mxCell>
        <mxCell id="fRdi2J-xlvi1yjMBcKha-205" value="" style="endArrow=none;html=1;rounded=0;entryX=0.5;entryY=1;entryDx=0;entryDy=0;exitX=0.5;exitY=0;exitDx=0;exitDy=0;" edge="1" parent="fRdi2J-xlvi1yjMBcKha-273" source="fRdi2J-xlvi1yjMBcKha-191" target="fRdi2J-xlvi1yjMBcKha-184">
          <mxGeometry width="50" height="50" relative="1" as="geometry">
            <mxPoint x="844" y="1280" as="sourcePoint" />
            <mxPoint x="844" y="1250" as="targetPoint" />
          </mxGeometry>
        </mxCell>
        <mxCell id="fRdi2J-xlvi1yjMBcKha-206" value="" style="endArrow=none;html=1;rounded=0;entryX=0.5;entryY=1;entryDx=0;entryDy=0;exitX=0.5;exitY=0;exitDx=0;exitDy=0;" edge="1" parent="fRdi2J-xlvi1yjMBcKha-273" source="fRdi2J-xlvi1yjMBcKha-192" target="fRdi2J-xlvi1yjMBcKha-191">
          <mxGeometry width="50" height="50" relative="1" as="geometry">
            <mxPoint x="854" y="1290" as="sourcePoint" />
            <mxPoint x="854" y="1260" as="targetPoint" />
          </mxGeometry>
        </mxCell>
        <mxCell id="fRdi2J-xlvi1yjMBcKha-208" value="" style="endArrow=none;html=1;rounded=0;entryX=0.5;entryY=1;entryDx=0;entryDy=0;exitX=0.5;exitY=0;exitDx=0;exitDy=0;" edge="1" parent="fRdi2J-xlvi1yjMBcKha-273" source="fRdi2J-xlvi1yjMBcKha-188" target="fRdi2J-xlvi1yjMBcKha-187">
          <mxGeometry width="50" height="50" relative="1" as="geometry">
            <mxPoint x="892" y="1320" as="sourcePoint" />
            <mxPoint x="892" y="1290" as="targetPoint" />
          </mxGeometry>
        </mxCell>
        <mxCell id="fRdi2J-xlvi1yjMBcKha-210" value="" style="endArrow=none;html=1;rounded=0;entryX=0.5;entryY=1;entryDx=0;entryDy=0;exitX=0.5;exitY=0;exitDx=0;exitDy=0;" edge="1" parent="fRdi2J-xlvi1yjMBcKha-273" source="fRdi2J-xlvi1yjMBcKha-190" target="fRdi2J-xlvi1yjMBcKha-189">
          <mxGeometry width="50" height="50" relative="1" as="geometry">
            <mxPoint x="1184" y="1290" as="sourcePoint" />
            <mxPoint x="1184" y="1260" as="targetPoint" />
          </mxGeometry>
        </mxCell>
        <mxCell id="fRdi2J-xlvi1yjMBcKha-228" value="" style="endArrow=classic;html=1;rounded=0;exitX=1;exitY=0.5;exitDx=0;exitDy=0;entryX=0;entryY=0.5;entryDx=0;entryDy=0;" edge="1" parent="fRdi2J-xlvi1yjMBcKha-273" source="fRdi2J-xlvi1yjMBcKha-143" target="fRdi2J-xlvi1yjMBcKha-132">
          <mxGeometry width="50" height="50" relative="1" as="geometry">
            <mxPoint x="640" y="268" as="sourcePoint" />
            <mxPoint x="640" y="302" as="targetPoint" />
          </mxGeometry>
        </mxCell>
        <mxCell id="fRdi2J-xlvi1yjMBcKha-230" value="" style="endArrow=classic;html=1;rounded=0;exitX=1;exitY=0.5;exitDx=0;exitDy=0;entryX=0;entryY=0.5;entryDx=0;entryDy=0;" edge="1" parent="fRdi2J-xlvi1yjMBcKha-273" source="fRdi2J-xlvi1yjMBcKha-149" target="fRdi2J-xlvi1yjMBcKha-100">
          <mxGeometry width="50" height="50" relative="1" as="geometry">
            <mxPoint x="640" y="347" as="sourcePoint" />
            <mxPoint x="640" y="461" as="targetPoint" />
          </mxGeometry>
        </mxCell>
        <mxCell id="fRdi2J-xlvi1yjMBcKha-238" style="edgeStyle=orthogonalEdgeStyle;rounded=0;orthogonalLoop=1;jettySize=auto;html=1;exitX=0.5;exitY=1;exitDx=0;exitDy=0;entryX=0.5;entryY=0;entryDx=0;entryDy=0;" edge="1" parent="fRdi2J-xlvi1yjMBcKha-273" source="fRdi2J-xlvi1yjMBcKha-231" target="fRdi2J-xlvi1yjMBcKha-138">
          <mxGeometry relative="1" as="geometry" />
        </mxCell>
        <mxCell id="fRdi2J-xlvi1yjMBcKha-271" style="edgeStyle=orthogonalEdgeStyle;rounded=0;orthogonalLoop=1;jettySize=auto;html=1;exitX=0;exitY=0.5;exitDx=0;exitDy=0;entryX=1;entryY=0.5;entryDx=0;entryDy=0;" edge="1" parent="fRdi2J-xlvi1yjMBcKha-273" source="fRdi2J-xlvi1yjMBcKha-231" target="fRdi2J-xlvi1yjMBcKha-100">
          <mxGeometry relative="1" as="geometry">
            <mxPoint x="896.87" y="475.5" as="targetPoint" />
            <Array as="points">
              <mxPoint x="897" y="565" />
              <mxPoint x="897" y="476" />
            </Array>
          </mxGeometry>
        </mxCell>
        <mxCell id="fRdi2J-xlvi1yjMBcKha-231" value="등록된 스마트 홈 기기 선택" style="whiteSpace=wrap;html=1;rounded=1;shadow=1;strokeWidth=1;fontSize=16;align=center;fillColor=#f5f5f5;strokeColor=#666666;" vertex="1" parent="fRdi2J-xlvi1yjMBcKha-273">
          <mxGeometry x="955.88" y="540" width="125" height="50" as="geometry" />
        </mxCell>
        <mxCell id="fRdi2J-xlvi1yjMBcKha-237" style="edgeStyle=orthogonalEdgeStyle;rounded=0;orthogonalLoop=1;jettySize=auto;html=1;exitX=0.5;exitY=1;exitDx=0;exitDy=0;entryX=0.5;entryY=0;entryDx=0;entryDy=0;" edge="1" parent="fRdi2J-xlvi1yjMBcKha-273" source="fRdi2J-xlvi1yjMBcKha-234" target="fRdi2J-xlvi1yjMBcKha-231">
          <mxGeometry relative="1" as="geometry" />
        </mxCell>
        <mxCell id="fRdi2J-xlvi1yjMBcKha-234" value="등록된 스마트 홈&lt;div&gt;&amp;nbsp;기기&amp;nbsp;목록&amp;nbsp; 확인&lt;/div&gt;" style="whiteSpace=wrap;html=1;rounded=1;shadow=1;strokeWidth=1;fontSize=16;align=center;fillColor=#f5f5f5;strokeColor=#666666;" vertex="1" parent="fRdi2J-xlvi1yjMBcKha-273">
          <mxGeometry x="945.69" y="450" width="145.37" height="50.5" as="geometry" />
        </mxCell>
        <mxCell id="fRdi2J-xlvi1yjMBcKha-235" value="" style="endArrow=classic;html=1;rounded=0;exitX=0.5;exitY=1;exitDx=0;exitDy=0;entryX=0.5;entryY=0;entryDx=0;entryDy=0;" edge="1" parent="fRdi2J-xlvi1yjMBcKha-273" source="fRdi2J-xlvi1yjMBcKha-136" target="fRdi2J-xlvi1yjMBcKha-234">
          <mxGeometry width="50" height="50" relative="1" as="geometry">
            <mxPoint x="1020.37" y="347" as="sourcePoint" />
            <mxPoint x="1020.37" y="381" as="targetPoint" />
          </mxGeometry>
        </mxCell>
        <mxCell id="fRdi2J-xlvi1yjMBcKha-266" style="edgeStyle=orthogonalEdgeStyle;rounded=0;orthogonalLoop=1;jettySize=auto;html=1;exitX=0.5;exitY=1;exitDx=0;exitDy=0;entryX=0.5;entryY=0;entryDx=0;entryDy=0;" edge="1" parent="fRdi2J-xlvi1yjMBcKha-273" source="fRdi2J-xlvi1yjMBcKha-240" target="fRdi2J-xlvi1yjMBcKha-186">
          <mxGeometry relative="1" as="geometry" />
        </mxCell>
        <mxCell id="fRdi2J-xlvi1yjMBcKha-240" value="기기 제어" style="whiteSpace=wrap;html=1;rounded=1;shadow=1;strokeWidth=1;fontSize=16;align=center;fillColor=#f5f5f5;strokeColor=#666666;" vertex="1" parent="fRdi2J-xlvi1yjMBcKha-273">
          <mxGeometry x="124" y="1190" width="125" height="45" as="geometry" />
        </mxCell>
        <mxCell id="fRdi2J-xlvi1yjMBcKha-267" style="edgeStyle=orthogonalEdgeStyle;rounded=0;orthogonalLoop=1;jettySize=auto;html=1;exitX=0.5;exitY=1;exitDx=0;exitDy=0;entryX=0.5;entryY=0;entryDx=0;entryDy=0;" edge="1" parent="fRdi2J-xlvi1yjMBcKha-273" source="fRdi2J-xlvi1yjMBcKha-261" target="fRdi2J-xlvi1yjMBcKha-181">
          <mxGeometry relative="1" as="geometry" />
        </mxCell>
        <mxCell id="fRdi2J-xlvi1yjMBcKha-261" value="기기 제어" style="whiteSpace=wrap;html=1;rounded=1;shadow=1;strokeWidth=1;fontSize=16;align=center;fillColor=#f5f5f5;strokeColor=#666666;" vertex="1" parent="fRdi2J-xlvi1yjMBcKha-273">
          <mxGeometry x="446" y="1190" width="125" height="45" as="geometry" />
        </mxCell>
        <mxCell id="fRdi2J-xlvi1yjMBcKha-268" style="edgeStyle=orthogonalEdgeStyle;rounded=0;orthogonalLoop=1;jettySize=auto;html=1;exitX=0.5;exitY=1;exitDx=0;exitDy=0;entryX=0.5;entryY=0;entryDx=0;entryDy=0;" edge="1" parent="fRdi2J-xlvi1yjMBcKha-273" source="fRdi2J-xlvi1yjMBcKha-262" target="fRdi2J-xlvi1yjMBcKha-183">
          <mxGeometry relative="1" as="geometry" />
        </mxCell>
        <mxCell id="fRdi2J-xlvi1yjMBcKha-262" value="기기 제어" style="whiteSpace=wrap;html=1;rounded=1;shadow=1;strokeWidth=1;fontSize=16;align=center;fillColor=#f5f5f5;strokeColor=#666666;" vertex="1" parent="fRdi2J-xlvi1yjMBcKha-273">
          <mxGeometry x="762.5" y="1190" width="125" height="45" as="geometry" />
        </mxCell>
        <mxCell id="fRdi2J-xlvi1yjMBcKha-270" style="edgeStyle=orthogonalEdgeStyle;rounded=0;orthogonalLoop=1;jettySize=auto;html=1;exitX=0.5;exitY=1;exitDx=0;exitDy=0;entryX=0.5;entryY=0;entryDx=0;entryDy=0;" edge="1" parent="fRdi2J-xlvi1yjMBcKha-273" source="fRdi2J-xlvi1yjMBcKha-263" target="fRdi2J-xlvi1yjMBcKha-189">
          <mxGeometry relative="1" as="geometry" />
        </mxCell>
        <mxCell id="fRdi2J-xlvi1yjMBcKha-263" value="기기 제어" style="whiteSpace=wrap;html=1;rounded=1;shadow=1;strokeWidth=1;fontSize=16;align=center;fillColor=#f5f5f5;strokeColor=#666666;" vertex="1" parent="fRdi2J-xlvi1yjMBcKha-273">
          <mxGeometry x="1401" y="1190" width="125" height="45" as="geometry" />
        </mxCell>
        <mxCell id="fRdi2J-xlvi1yjMBcKha-269" style="edgeStyle=orthogonalEdgeStyle;rounded=0;orthogonalLoop=1;jettySize=auto;html=1;exitX=0.5;exitY=1;exitDx=0;exitDy=0;entryX=0.5;entryY=0;entryDx=0;entryDy=0;" edge="1" parent="fRdi2J-xlvi1yjMBcKha-273" source="fRdi2J-xlvi1yjMBcKha-264" target="fRdi2J-xlvi1yjMBcKha-187">
          <mxGeometry relative="1" as="geometry" />
        </mxCell>
        <mxCell id="fRdi2J-xlvi1yjMBcKha-264" value="기기 제어" style="whiteSpace=wrap;html=1;rounded=1;shadow=1;strokeWidth=1;fontSize=16;align=center;fillColor=#f5f5f5;strokeColor=#666666;" vertex="1" parent="fRdi2J-xlvi1yjMBcKha-273">
          <mxGeometry x="1081" y="1190" width="125" height="45" as="geometry" />
        </mxCell>
        <mxCell id="fRdi2J-xlvi1yjMBcKha-274" value="Work Flow V0.4" style="swimlane;whiteSpace=wrap;html=1;fillColor=#f5f5f5;fontColor=#333333;strokeColor=#666666;" vertex="1" parent="fRdi2J-xlvi1yjMBcKha-276">
          <mxGeometry width="1650" height="1760" as="geometry" />
        </mxCell>
      </root>
    </mxGraphModel>
  </diagram>
</mxfile>
